<?xml version="1.0" encoding="UTF-8" standalone="no"?>
<svg
   fill="none"
   width="160"
   height="42"
   viewBox="0 0 160 42"
   data-logo="true"
   version="1.1"
   id="svg3"
   sodipodi:docname="logo-white.svg"
   inkscape:version="1.4 (e7c3feb100, 2024-10-09)"
   xmlns:inkscape="http://www.inkscape.org/namespaces/inkscape"
   xmlns:sodipodi="http://sodipodi.sourceforge.net/DTD/sodipodi-0.dtd"
   xmlns="http://www.w3.org/2000/svg"
   xmlns:svg="http://www.w3.org/2000/svg">
  <defs
     id="defs3" />
  <sodipodi:namedview
     id="namedview3"
     pagecolor="#ffffff"
     bordercolor="#666666"
     borderopacity="1.0"
     inkscape:showpageshadow="2"
     inkscape:pageopacity="0.0"
     inkscape:pagecheckerboard="0"
     inkscape:deskcolor="#d1d1d1"
     inkscape:zoom="1.8870912"
     inkscape:cx="95.119939"
     inkscape:cy="-119.76104"
     inkscape:window-width="1278"
     inkscape:window-height="1059"
     inkscape:window-x="0"
     inkscape:window-y="0"
     inkscape:window-maximized="1"
     inkscape:current-layer="svg3" />
  <path
     fill="var(--logo-color, #1C1C1C)"
     d="M69.7 22.4v9h-2.9v-8.7c0-2.8-1.9-3.7-3.4-3.7-1.6 0-3.5.9-3.5 3.7v8.8H57v-8.8c0-2.8-1.8-3.7-3.4-3.7-1.6 0-3.5.9-3.5 3.7v8.8h-2.9V16.6h3v1.8a5 5 0 0 1 4.2-2c1.9 0 3.8.7 4.8 2.6 1.1-1.9 3.2-2.6 5-2.6 2.7 0 5.5 1.5 5.5 6Zm17.8-5.8v14.9h-3v-2.3a6 6 0 0 1-5 2.5c-4.2 0-7.2-3.2-7.2-7.6 0-4.5 3-7.7 7.2-7.7 2.3 0 4 1 5 2.5v-2.3h3Zm-3 7.5c0-2.9-1.8-5-4.6-5-2.9 0-4.8 2.1-4.8 5 0 2.8 1.9 4.9 4.8 4.9s4.7-2.1 4.7-5Zm14.2-7.7v2.8c-2 0-5.3.9-5.3 4.7v7.6h-2.9V16.6h3v2.8a6 6 0 0 1 5.2-3Zm2 15V10.6h3v21h-3Zm5.3-7.3c0-4.5 3-7.7 7.6-7.7s7.5 3.2 7.5 7.7c0 4.4-3 7.7-7.5 7.7S106 28.5 106 24Zm12.2 0c0-2.9-1.8-5-4.6-5s-4.7 2.1-4.7 5c0 2.8 1.8 4.9 4.7 4.9 2.8 0 4.6-2.1 4.6-5Zm26-7.5-4.8 14.9h-3L133 21.2l-3.5 10.3h-2.9l-4.8-14.9h3l3.4 10.8 3.8-10.7h2.1l3.7 10.7 3.5-10.7h3Zm15 7.5v.8h-11.6c.3 2.6 2.1 4.3 4.7 4.3a5 5 0 0 0 4.2-2l2 1.5a7.4 7.4 0 0 1-6.2 3c-4.5 0-7.5-3.2-7.5-7.6 0-4.5 2.9-7.7 7.3-7.7 4.5 0 7.1 3.2 7.1 7.7ZM147.6 23h9c-.4-2.5-2-4.3-4.5-4.3s-4.2 1.7-4.5 4.3Z"
     id="path1"
     style="fill:#ffffff" />
  <path
     fill="var(--logo-color-highlight, #511CF7)"
     d="m21.2 1.7-3-1.7L0 10.5v21l.7.4L3 33.2 18.2 42l6-3.5v-21l-12-7L9 12.2l12.1 7v17.5l-3 1.8L3 29.7V12.2l15.2-8.7 15.1 8.7v21l3-1.7v-21l-15-8.8Z"
     id="path2"
     style="fill:#ffffff" />
  <path
     fill="var(--logo-color-highlight, #511CF7)"
     d="m15.2 8.7 12 7v21l3.1-1.7V14L18.2 7l-3 1.7Z"
     id="path3"
     style="fill:#ffffff" />
</svg>
